<?xml version="1.0" encoding="UTF-8" standalone="no"?>
<!-- Created with Inkscape (http://www.inkscape.org/) -->

<svg
   width="512"
   height="512"
   viewBox="0 0 135.46667 135.46667"
   version="1.1"
   id="svg1"
   xmlns="http://www.w3.org/2000/svg"
   xmlns:svg="http://www.w3.org/2000/svg">
  <defs
     id="defs1" />
  <g
     id="layer1">
    <path
       style="fill:#9165ff;fill-opacity:1;stroke:#000000;stroke-width:2.5;stroke-linecap:round;stroke-dasharray:none;stroke-opacity:1"
       d="m 155.52633,43.97273 c 0.54426,-0.01907 1.63278,-0.0572 3.7521,-0.677552 2.11931,-0.62035 5.26941,-1.822916 7.48136,-2.488425 2.21194,-0.665508 3.48572,-0.793957 5.73615,-1.481051 2.25044,-0.687095 5.47752,-1.932833 6.90022,-3.236113 1.42269,-1.303281 1.04099,-2.6641 0.21235,-5.147889 -0.82865,-2.483789 -2.10423,-6.090539 -2.99266,-7.351619 -0.88843,-1.26108 -1.3897,-0.176483 -2.12135,0.730561 -0.73166,0.907044 -1.69369,1.636523 -2.61661,2.17936 -0.92292,0.542837 -1.8067,0.899014 -3.17317,1.033312 -1.36646,0.134299 -3.21554,0.04671 -4.66224,-0.46145 -1.44671,-0.508163 -2.49102,-1.436901 -4.3552,0.0075 -1.86419,1.4444 -4.54824,5.261915 -7.47239,7.201962 -2.92414,1.940047 -6.08835,2.002611 -7.88517,3.123667 -1.79682,1.121055 -2.22625,3.300601 -1.50907,4.584981 0.71718,1.284381 2.5916,1.675818 4.79694,1.859208 2.20534,0.18339 4.79223,0.162944 6.07835,0.152779 1.28612,-0.01016 1.28612,-0.01016 1.83039,-0.02923 z"
       id="path48"
       transform="matrix(1.8127238,0,0,1.8127238,-226.43988,40.135439)" />
    <path
       id="path49"
       style="fill:#66ff79;fill-opacity:1;stroke:#000000;stroke-width:4.53181;stroke-linecap:round;stroke-linejoin:round;stroke-dasharray:none;stroke-dashoffset:0;stroke-opacity:1;paint-order:normal"
       d="m 32.476739,27.741029 30.151402,38.26954 2.783618,8.834432 c 1.896361,6.017832 8.311922,9.359156 14.329881,7.463187 6.017814,-1.89634 9.359105,-8.311922 7.463159,-14.329871 l -2.783618,-8.834437 2.766851,-48.641656 -3.286659,5.911982 -2.835252,-3.983044 -3.838804,6.085949 -5.348554,-3.191138 -2.45126,5.648757 -5.499527,-3.143571 -2.697867,5.726449 -5.4942,-3.145239 -2.70409,5.728424 -5.245801,-3.223513 -2.554002,5.681132 -6.633357,-2.786321 -0.03985,4.888953 z" />
    <path
       style="font-variation-settings:normal;fill:none;fill-opacity:1;stroke:#000000;stroke-width:4.53181;stroke-linecap:round;stroke-linejoin:round;stroke-miterlimit:4;stroke-dasharray:none;stroke-dashoffset:0;stroke-opacity:1;paint-order:normal"
       d="M 63.175675,67.748263 84.968693,60.881557"
       id="path50" />
  </g>
</svg>
